<svg width="757" height="214" viewBox="0 0 757 214" fill="none" xmlns="http://www.w3.org/2000/svg">
<path d="M8 4C8 1.79086 6.20914 0 4 0C1.79086 0 0 1.79086 0 4H8ZM718.239 174C716.03 174 714.468 176.706 715.573 178.619L733.333 209.381C734.438 211.294 737.562 211.294 738.667 209.381L756.427 178.619C757.532 176.706 755.97 174 753.761 174H718.239ZM0 5.32065C0 7.52979 1.79086 9.32065 4 9.32065C6.20914 9.32065 8 7.52979 8 5.32065H0ZM8 22.9293C8 20.7202 6.20914 18.9293 4 18.9293C1.79086 18.9293 0 20.7202 0 22.9293H8ZM0 25.5707C0 27.7798 1.79086 29.5707 4 29.5707C6.20914 29.5707 8 27.7798 8 25.5707H0ZM8 43.1793C8 40.9702 6.20914 39.1793 4 39.1793C1.79086 39.1793 0 40.9702 0 43.1793H8ZM0 45.8207C0 48.0298 1.79086 49.8207 4 49.8207C6.20914 49.8207 8 48.0298 8 45.8207H0ZM8 63.4293C8 61.2202 6.20914 59.4293 4 59.4293C1.79086 59.4293 0 61.2202 0 63.4293H8ZM0 66.0707C0 68.2798 1.79086 70.0707 4 70.0707C6.20914 70.0707 8 68.2798 8 66.0707H0ZM8 83.6794C8 81.4702 6.20914 79.6794 4 79.6794C1.79086 79.6794 0 81.4702 0 83.6794H8ZM0.036003 86.4305C0.147293 88.6369 2.0261 90.3352 4.23243 90.2239C6.43877 90.1126 8.13713 88.2338 8.02585 86.0275L0.036003 86.4305ZM13.1513 98.3986C11.6707 96.7591 9.14133 96.6302 7.50176 98.1107C5.86219 99.5913 5.7333 102.121 7.21387 103.76L13.1513 98.3986ZM9.23973 105.786C10.8793 107.267 13.4087 107.138 14.8893 105.498C16.3698 103.859 16.2409 101.329 14.6014 99.8487L9.23973 105.786ZM26.9725 104.974C24.7662 104.863 22.8874 106.561 22.7761 108.768C22.6648 110.974 24.3631 112.853 26.5695 112.964L26.9725 104.974ZM29.487 113C31.6961 113 33.487 111.209 33.487 109C33.487 106.791 31.6961 105 29.487 105V113ZM49.313 105C47.1039 105 45.313 106.791 45.313 109C45.313 111.209 47.1039 113 49.313 113V105ZM52.287 113C54.4961 113 56.287 111.209 56.287 109C56.287 106.791 54.4961 105 52.287 105V113ZM72.113 105C69.9039 105 68.113 106.791 68.113 109C68.113 111.209 69.9039 113 72.113 113V105ZM75.0869 113C77.2961 113 79.0869 111.209 79.0869 109C79.0869 106.791 77.2961 105 75.0869 105V113ZM94.913 105C92.7039 105 90.913 106.791 90.913 109C90.913 111.209 92.7039 113 94.913 113V105ZM97.887 113C100.096 113 101.887 111.209 101.887 109C101.887 106.791 100.096 105 97.887 105V113ZM117.713 105C115.504 105 113.713 106.791 113.713 109C113.713 111.209 115.504 113 117.713 113V105ZM120.687 113C122.896 113 124.687 111.209 124.687 109C124.687 106.791 122.896 105 120.687 105V113ZM140.513 105C138.304 105 136.513 106.791 136.513 109C136.513 111.209 138.304 113 140.513 113V105ZM143.487 113C145.696 113 147.487 111.209 147.487 109C147.487 106.791 145.696 105 143.487 105V113ZM163.313 105C161.104 105 159.313 106.791 159.313 109C159.313 111.209 161.104 113 163.313 113V105ZM166.287 113C168.496 113 170.287 111.209 170.287 109C170.287 106.791 168.496 105 166.287 105V113ZM186.113 105C183.904 105 182.113 106.791 182.113 109C182.113 111.209 183.904 113 186.113 113V105ZM189.087 113C191.296 113 193.087 111.209 193.087 109C193.087 106.791 191.296 105 189.087 105V113ZM208.913 105C206.704 105 204.913 106.791 204.913 109C204.913 111.209 206.704 113 208.913 113V105ZM211.887 113C214.096 113 215.887 111.209 215.887 109C215.887 106.791 214.096 105 211.887 105V113ZM231.713 105C229.504 105 227.713 106.791 227.713 109C227.713 111.209 229.504 113 231.713 113V105ZM234.687 113C236.896 113 238.687 111.209 238.687 109C238.687 106.791 236.896 105 234.687 105V113ZM254.513 105C252.304 105 250.513 106.791 250.513 109C250.513 111.209 252.304 113 254.513 113V105ZM257.487 113C259.696 113 261.487 111.209 261.487 109C261.487 106.791 259.696 105 257.487 105V113ZM277.313 105C275.104 105 273.313 106.791 273.313 109C273.313 111.209 275.104 113 277.313 113V105ZM280.287 113C282.496 113 284.287 111.209 284.287 109C284.287 106.791 282.496 105 280.287 105V113ZM300.113 105C297.904 105 296.113 106.791 296.113 109C296.113 111.209 297.904 113 300.113 113V105ZM303.087 113C305.296 113 307.087 111.209 307.087 109C307.087 106.791 305.296 105 303.087 105V113ZM322.913 105C320.704 105 318.913 106.791 318.913 109C318.913 111.209 320.704 113 322.913 113V105ZM325.887 113C328.096 113 329.887 111.209 329.887 109C329.887 106.791 328.096 105 325.887 105V113ZM345.713 105C343.504 105 341.713 106.791 341.713 109C341.713 111.209 343.504 113 345.713 113V105ZM348.687 113C350.896 113 352.687 111.209 352.687 109C352.687 106.791 350.896 105 348.687 105V113ZM368.513 105C366.304 105 364.513 106.791 364.513 109C364.513 111.209 366.304 113 368.513 113V105ZM371.487 113C373.696 113 375.487 111.209 375.487 109C375.487 106.791 373.696 105 371.487 105V113ZM391.313 105C389.104 105 387.313 106.791 387.313 109C387.313 111.209 389.104 113 391.313 113V105ZM394.287 113C396.496 113 398.287 111.209 398.287 109C398.287 106.791 396.496 105 394.287 105V113ZM414.113 105C411.904 105 410.113 106.791 410.113 109C410.113 111.209 411.904 113 414.113 113V105ZM417.087 113C419.296 113 421.087 111.209 421.087 109C421.087 106.791 419.296 105 417.087 105V113ZM436.913 105C434.704 105 432.913 106.791 432.913 109C432.913 111.209 434.704 113 436.913 113V105ZM439.887 113C442.096 113 443.887 111.209 443.887 109C443.887 106.791 442.096 105 439.887 105V113ZM459.713 105C457.504 105 455.713 106.791 455.713 109C455.713 111.209 457.504 113 459.713 113V105ZM462.687 113C464.896 113 466.687 111.209 466.687 109C466.687 106.791 464.896 105 462.687 105V113ZM482.513 105C480.304 105 478.513 106.791 478.513 109C478.513 111.209 480.304 113 482.513 113V105ZM485.487 113C487.696 113 489.487 111.209 489.487 109C489.487 106.791 487.696 105 485.487 105V113ZM505.313 105C503.104 105 501.313 106.791 501.313 109C501.313 111.209 503.104 113 505.313 113V105ZM508.287 113C510.496 113 512.287 111.209 512.287 109C512.287 106.791 510.496 105 508.287 105V113ZM528.113 105C525.904 105 524.113 106.791 524.113 109C524.113 111.209 525.904 113 528.113 113V105ZM531.087 113C533.296 113 535.087 111.209 535.087 109C535.087 106.791 533.296 105 531.087 105V113ZM550.913 105C548.704 105 546.913 106.791 546.913 109C546.913 111.209 548.704 113 550.913 113V105ZM553.887 113C556.096 113 557.887 111.209 557.887 109C557.887 106.791 556.096 105 553.887 105V113ZM573.713 105C571.504 105 569.713 106.791 569.713 109C569.713 111.209 571.504 113 573.713 113V105ZM576.687 113C578.896 113 580.687 111.209 580.687 109C580.687 106.791 578.896 105 576.687 105V113ZM596.513 105C594.304 105 592.513 106.791 592.513 109C592.513 111.209 594.304 113 596.513 113V105ZM599.487 113C601.696 113 603.487 111.209 603.487 109C603.487 106.791 601.696 105 599.487 105V113ZM619.313 105C617.104 105 615.313 106.791 615.313 109C615.313 111.209 617.104 113 619.313 113V105ZM622.287 113C624.496 113 626.287 111.209 626.287 109C626.287 106.791 624.496 105 622.287 105V113ZM642.113 105C639.904 105 638.113 106.791 638.113 109C638.113 111.209 639.904 113 642.113 113V105ZM645.087 113C647.296 113 649.087 111.209 649.087 109C649.087 106.791 647.296 105 645.087 105V113ZM664.913 105C662.704 105 660.913 106.791 660.913 109C660.913 111.209 662.704 113 664.913 113V105ZM667.887 113C670.096 113 671.887 111.209 671.887 109C671.887 106.791 670.096 105 667.887 105V113ZM687.713 105C685.504 105 683.713 106.791 683.713 109C683.713 111.209 685.504 113 687.713 113V105ZM690.687 113C692.896 113 694.687 111.209 694.687 109C694.687 106.791 692.896 105 690.687 105V113ZM710.513 105C708.304 105 706.513 106.791 706.513 109C706.513 111.209 708.304 113 710.513 113V105ZM713.027 113.026C715.234 113.137 717.113 111.439 717.224 109.232C717.335 107.026 715.637 105.147 713.431 105.036L713.027 113.026ZM730.76 112.214C729.121 110.733 726.591 110.862 725.111 112.502C723.63 114.141 723.759 116.671 725.399 118.151L730.76 112.214ZM726.849 119.601C728.329 121.241 730.859 121.37 732.498 119.889C734.138 118.409 734.267 115.879 732.786 114.24L726.849 119.601ZM739.964 131.569C739.853 129.363 737.974 127.665 735.768 127.776C733.561 127.887 731.863 129.766 731.974 131.972L739.964 131.569ZM732 134.321C732 136.53 733.791 138.321 736 138.321C738.209 138.321 740 136.53 740 134.321H732ZM740 151.929C740 149.72 738.209 147.929 736 147.929C733.791 147.929 732 149.72 732 151.929H740ZM732 154.571C732 156.78 733.791 158.571 736 158.571C738.209 158.571 740 156.78 740 154.571H732ZM740 172.179C740 169.97 738.209 168.179 736 168.179C733.791 168.179 732 169.97 732 172.179H740ZM732 174.821C732 177.03 733.791 178.821 736 178.821C738.209 178.821 740 177.03 740 174.821H732ZM740 192.429C740 190.22 738.209 188.429 736 188.429C733.791 188.429 732 190.22 732 192.429H740ZM732 195.071C732 197.28 733.791 199.071 736 199.071C738.209 199.071 740 197.28 740 195.071H732ZM740 212.679C740 210.47 738.209 208.679 736 208.679C733.791 208.679 732 210.47 732 212.679H740ZM0 4V5.32065H8V4H0ZM0 22.9293V25.5707H8V22.9293H0ZM0 43.1793V45.8207H8V43.1793H0ZM0 63.4293V66.0707H8V63.4293H0ZM0 83.6794V85H8V83.6794H0ZM0 85C0 85.4794 0.0120858 85.9564 0.036003 86.4305L8.02585 86.0275C8.0087 85.6875 8 85.3449 8 85H0ZM7.21387 103.76C7.8543 104.469 8.53053 105.146 9.23973 105.786L14.6014 99.8487C14.0937 99.3903 13.6097 98.9063 13.1513 98.3986L7.21387 103.76ZM26.5695 112.964C27.0436 112.988 27.5206 113 28 113V105C27.6551 105 27.3125 104.991 26.9725 104.974L26.5695 112.964ZM28 113H29.487V105H28V113ZM49.313 113H52.287V105H49.313V113ZM72.113 113H75.0869V105H72.113V113ZM94.913 113H97.887V105H94.913V113ZM117.713 113H120.687V105H117.713V113ZM140.513 113H143.487V105H140.513V113ZM163.313 113H166.287V105H163.313V113ZM186.113 113H189.087V105H186.113V113ZM208.913 113H211.887V105H208.913V113ZM231.713 113H234.687V105H231.713V113ZM254.513 113H257.487V105H254.513V113ZM277.313 113H280.287V105H277.313V113ZM300.113 113H303.087V105H300.113V113ZM322.913 113H325.887V105H322.913V113ZM345.713 113H348.687V105H345.713V113ZM368.513 113H371.487V105H368.513V113ZM391.313 113H394.287V105H391.313V113ZM414.113 113H417.087V105H414.113V113ZM436.913 113H439.887V105H436.913V113ZM459.713 113H462.687V105H459.713V113ZM482.513 113H485.487V105H482.513V113ZM505.313 113H508.287V105H505.313V113ZM528.113 113H531.087V105H528.113V113ZM550.913 113H553.887V105H550.913V113ZM573.713 113H576.687V105H573.713V113ZM596.513 113H599.487V105H596.513V113ZM619.313 113H622.287V105H619.313V113ZM642.113 113H645.087V105H642.113V113ZM664.913 113H667.887V105H664.913V113ZM687.713 113H690.687V105H687.713V113ZM710.513 113H712V105H710.513V113ZM712 113C712.345 113 712.687 113.009 713.027 113.026L713.431 105.036C712.956 105.012 712.479 105 712 105V113ZM725.399 118.151C725.906 118.61 726.39 119.094 726.849 119.601L732.786 114.24C732.146 113.531 731.469 112.854 730.76 112.214L725.399 118.151ZM731.974 131.972C731.991 132.312 732 132.655 732 133H740C740 132.521 739.988 132.044 739.964 131.569L731.974 131.972ZM732 133V134.321H740V133H732ZM732 151.929V154.571H740V151.929H732ZM732 172.179V174.821H740V172.179H732ZM732 192.429V195.071H740V192.429H732Z" fill="#3C64B1"/>
</svg>
