<svg width="721" height="222" viewBox="0 0 721 222" fill="none" xmlns="http://www.w3.org/2000/svg">
<path d="M721 4C721 1.79086 719.209 0 717 0C714.791 0 713 1.79086 713 4H721ZM3.23932 182C1.03018 182 -0.531914 184.706 0.572656 186.619L18.3333 217.381C19.4379 219.294 22.5621 219.294 23.6667 217.381L41.4273 186.619C42.5319 184.706 40.9698 182 38.7607 182H3.23932ZM25 220.614C25 218.405 23.2091 216.614 21 216.614C18.7909 216.614 17 218.405 17 220.614H25ZM17 202.136C17 204.345 18.7909 206.136 21 206.136C23.2091 206.136 25 204.345 25 202.136H17ZM25 199.364C25 197.155 23.2091 195.364 21 195.364C18.7909 195.364 17 197.155 17 199.364H25ZM17 180.886C17 183.095 18.7909 184.886 21 184.886C23.2091 184.886 25 183.095 25 180.886H17ZM25 178.114C25 175.905 23.2091 174.114 21 174.114C18.7909 174.114 17 175.905 17 178.114H25ZM17 159.636C17 161.845 18.7909 163.636 21 163.636C23.2091 163.636 25 161.845 25 159.636H17ZM25 156.864C25 154.655 23.2091 152.864 21 152.864C18.7909 152.864 17 154.655 17 156.864H25ZM17 138.386C17 140.595 18.7909 142.386 21 142.386C23.2091 142.386 25 140.595 25 138.386H17ZM25.0258 135.972C25.1371 133.766 23.4388 131.887 21.2324 131.776C19.0261 131.665 17.1473 133.363 17.036 135.569L25.0258 135.972ZM24.2139 118.24C22.7333 119.879 22.8622 122.409 24.5018 123.889C26.1413 125.37 28.6707 125.241 30.1513 123.601L24.2139 118.24ZM31.6014 122.151C33.2409 120.671 33.3698 118.141 31.8893 116.502C30.4087 114.862 27.8793 114.733 26.2397 116.214L31.6014 122.151ZM43.5695 109.036C41.3632 109.147 39.6648 111.026 39.7761 113.232C39.8874 115.439 41.7662 117.137 43.9725 117.026L43.5695 109.036ZM46.5093 117C48.7185 117 50.5093 115.209 50.5093 113C50.5093 110.791 48.7185 109 46.5093 109V117ZM66.6336 109C64.4244 109 62.6336 110.791 62.6336 113C62.6336 115.209 64.4244 117 66.6336 117V109ZM69.6522 117C71.8613 117 73.6522 115.209 73.6522 113C73.6522 110.791 71.8613 109 69.6522 109V117ZM89.7764 109C87.5673 109 85.7764 110.791 85.7764 113C85.7764 115.209 87.5673 117 89.7764 117V109ZM92.795 117C95.0042 117 96.795 115.209 96.795 113C96.795 110.791 95.0042 109 92.795 109V117ZM112.919 109C110.71 109 108.919 110.791 108.919 113C108.919 115.209 110.71 117 112.919 117V109ZM115.938 117C118.147 117 119.938 115.209 119.938 113C119.938 110.791 118.147 109 115.938 109V117ZM136.062 109C133.853 109 132.062 110.791 132.062 113C132.062 115.209 133.853 117 136.062 117V109ZM139.081 117C141.29 117 143.081 115.209 143.081 113C143.081 110.791 141.29 109 139.081 109V117ZM159.205 109C156.996 109 155.205 110.791 155.205 113C155.205 115.209 156.996 117 159.205 117V109ZM162.224 117C164.433 117 166.224 115.209 166.224 113C166.224 110.791 164.433 109 162.224 109V117ZM182.348 109C180.139 109 178.348 110.791 178.348 113C178.348 115.209 180.139 117 182.348 117V109ZM185.366 117C187.576 117 189.366 115.209 189.366 113C189.366 110.791 187.576 109 185.366 109V117ZM205.491 109C203.282 109 201.491 110.791 201.491 113C201.491 115.209 203.282 117 205.491 117V109ZM208.509 117C210.718 117 212.509 115.209 212.509 113C212.509 110.791 210.718 109 208.509 109V117ZM228.634 109C226.424 109 224.634 110.791 224.634 113C224.634 115.209 226.424 117 228.634 117V109ZM231.652 117C233.861 117 235.652 115.209 235.652 113C235.652 110.791 233.861 109 231.652 109V117ZM251.776 109C249.567 109 247.776 110.791 247.776 113C247.776 115.209 249.567 117 251.776 117V109ZM254.795 117C257.004 117 258.795 115.209 258.795 113C258.795 110.791 257.004 109 254.795 109V117ZM274.919 109C272.71 109 270.919 110.791 270.919 113C270.919 115.209 272.71 117 274.919 117V109ZM277.938 117C280.147 117 281.938 115.209 281.938 113C281.938 110.791 280.147 109 277.938 109V117ZM298.062 109C295.853 109 294.062 110.791 294.062 113C294.062 115.209 295.853 117 298.062 117V109ZM301.081 117C303.29 117 305.081 115.209 305.081 113C305.081 110.791 303.29 109 301.081 109V117ZM321.205 109C318.996 109 317.205 110.791 317.205 113C317.205 115.209 318.996 117 321.205 117V109ZM324.224 117C326.433 117 328.224 115.209 328.224 113C328.224 110.791 326.433 109 324.224 109V117ZM344.348 109C342.139 109 340.348 110.791 340.348 113C340.348 115.209 342.139 117 344.348 117V109ZM347.367 117C349.576 117 351.367 115.209 351.367 113C351.367 110.791 349.576 109 347.367 109V117ZM367.491 109C365.282 109 363.491 110.791 363.491 113C363.491 115.209 365.282 117 367.491 117V109ZM370.509 117C372.719 117 374.509 115.209 374.509 113C374.509 110.791 372.719 109 370.509 109V117ZM390.634 109C388.424 109 386.634 110.791 386.634 113C386.634 115.209 388.424 117 390.634 117V109ZM393.652 117C395.861 117 397.652 115.209 397.652 113C397.652 110.791 395.861 109 393.652 109V117ZM413.777 109C411.567 109 409.777 110.791 409.777 113C409.777 115.209 411.567 117 413.777 117V109ZM416.795 117C419.004 117 420.795 115.209 420.795 113C420.795 110.791 419.004 109 416.795 109V117ZM436.919 109C434.71 109 432.919 110.791 432.919 113C432.919 115.209 434.71 117 436.919 117V109ZM439.938 117C442.147 117 443.938 115.209 443.938 113C443.938 110.791 442.147 109 439.938 109V117ZM460.062 109C457.853 109 456.062 110.791 456.062 113C456.062 115.209 457.853 117 460.062 117V109ZM463.081 117C465.29 117 467.081 115.209 467.081 113C467.081 110.791 465.29 109 463.081 109V117ZM483.205 109C480.996 109 479.205 110.791 479.205 113C479.205 115.209 480.996 117 483.205 117V109ZM486.224 117C488.433 117 490.224 115.209 490.224 113C490.224 110.791 488.433 109 486.224 109V117ZM506.348 109C504.139 109 502.348 110.791 502.348 113C502.348 115.209 504.139 117 506.348 117V109ZM509.367 117C511.576 117 513.367 115.209 513.367 113C513.367 110.791 511.576 109 509.367 109V117ZM529.491 109C527.282 109 525.491 110.791 525.491 113C525.491 115.209 527.282 117 529.491 117V109ZM532.51 117C534.719 117 536.51 115.209 536.51 113C536.51 110.791 534.719 109 532.51 109V117ZM552.634 109C550.425 109 548.634 110.791 548.634 113C548.634 115.209 550.425 117 552.634 117V109ZM555.652 117C557.862 117 559.652 115.209 559.652 113C559.652 110.791 557.862 109 555.652 109V117ZM575.777 109C573.568 109 571.777 110.791 571.777 113C571.777 115.209 573.568 117 575.777 117V109ZM578.795 117C581.004 117 582.795 115.209 582.795 113C582.795 110.791 581.004 109 578.795 109V117ZM598.92 109C596.71 109 594.92 110.791 594.92 113C594.92 115.209 596.71 117 598.92 117V109ZM601.938 117C604.147 117 605.938 115.209 605.938 113C605.938 110.791 604.147 109 601.938 109V117ZM622.062 109C619.853 109 618.062 110.791 618.062 113C618.062 115.209 619.853 117 622.062 117V109ZM625.081 117C627.29 117 629.081 115.209 629.081 113C629.081 110.791 627.29 109 625.081 109V117ZM645.205 109C642.996 109 641.205 110.791 641.205 113C641.205 115.209 642.996 117 645.205 117V109ZM648.224 117C650.433 117 652.224 115.209 652.224 113C652.224 110.791 650.433 109 648.224 109V117ZM668.348 109C666.139 109 664.348 110.791 664.348 113C664.348 115.209 666.139 117 668.348 117V109ZM671.367 117C673.576 117 675.367 115.209 675.367 113C675.367 110.791 673.576 109 671.367 109V117ZM691.491 109C689.282 109 687.491 110.791 687.491 113C687.491 115.209 689.282 117 691.491 117V109ZM694.431 116.964C696.637 116.853 698.335 114.974 698.224 112.768C698.113 110.561 696.234 108.863 694.028 108.974L694.431 116.964ZM706.399 103.849C704.759 105.329 704.63 107.859 706.111 109.498C707.591 111.138 710.121 111.267 711.76 109.786L706.399 103.849ZM713.786 107.76C715.267 106.121 715.138 103.591 713.498 102.111C711.859 100.63 709.329 100.759 707.849 102.399L713.786 107.76ZM712.974 90.0275C712.863 92.2338 714.561 94.1126 716.768 94.2239C718.974 94.3352 720.853 92.6369 720.964 90.4305L712.974 90.0275ZM721 87.6141C721 85.405 719.209 83.6141 717 83.6141C714.791 83.6141 713 85.405 713 87.6141H721ZM713 69.1359C713 71.345 714.791 73.1359 717 73.1359C719.209 73.1359 721 71.345 721 69.1359H713ZM721 66.3641C721 64.155 719.209 62.3641 717 62.3641C714.791 62.3641 713 64.155 713 66.3641H721ZM713 47.8859C713 50.095 714.791 51.8859 717 51.8859C719.209 51.8859 721 50.095 721 47.8859H713ZM721 45.1141C721 42.905 719.209 41.1141 717 41.1141C714.791 41.1141 713 42.905 713 45.1141H721ZM713 26.6359C713 28.845 714.791 30.6359 717 30.6359C719.209 30.6359 721 28.845 721 26.6359H713ZM721 23.8641C721 21.655 719.209 19.8641 717 19.8641C714.791 19.8641 713 21.655 713 23.8641H721ZM713 5.38588C713 7.59502 714.791 9.38588 717 9.38588C719.209 9.38588 721 7.59502 721 5.38588H713ZM25 202.136V199.364H17V202.136H25ZM25 180.886V178.114H17V180.886H25ZM25 159.636V156.864H17V159.636H25ZM25 138.386V137H17V138.386H25ZM25 137C25 136.655 25.0087 136.312 25.0258 135.972L17.036 135.569C17.0121 136.044 17 136.521 17 137H25ZM30.1513 123.601C30.6097 123.094 31.0937 122.61 31.6014 122.151L26.2397 116.214C25.5305 116.854 24.8543 117.531 24.2139 118.24L30.1513 123.601ZM43.9725 117.026C44.3125 117.009 44.6551 117 45 117V109C44.5206 109 44.0437 109.012 43.5695 109.036L43.9725 117.026ZM45 117H46.5093V109H45V117ZM66.6336 117H69.6522V109H66.6336V117ZM89.7764 117H92.795V109H89.7764V117ZM112.919 117H115.938V109H112.919V117ZM136.062 117H139.081V109H136.062V117ZM159.205 117H162.224V109H159.205V117ZM182.348 117H185.366V109H182.348V117ZM205.491 117H208.509V109H205.491V117ZM228.634 117H231.652V109H228.634V117ZM251.776 117H254.795V109H251.776V117ZM274.919 117H277.938V109H274.919V117ZM298.062 117H301.081V109H298.062V117ZM321.205 117H324.224V109H321.205V117ZM344.348 117H347.367V109H344.348V117ZM367.491 117H370.509V109H367.491V117ZM390.634 117H393.652V109H390.634V117ZM413.777 117H416.795V109H413.777V117ZM436.919 117H439.938V109H436.919V117ZM460.062 117H463.081V109H460.062V117ZM483.205 117H486.224V109H483.205V117ZM506.348 117H509.367V109H506.348V117ZM529.491 117H532.51V109H529.491V117ZM552.634 117H555.652V109H552.634V117ZM575.777 117H578.795V109H575.777V117ZM598.92 117H601.938V109H598.92V117ZM622.062 117H625.081V109H622.062V117ZM645.205 117H648.224V109H645.205V117ZM668.348 117H671.367V109H668.348V117ZM691.491 117H693V109H691.491V117ZM693 117C693.479 117 693.956 116.988 694.431 116.964L694.028 108.974C693.688 108.991 693.345 109 693 109V117ZM711.76 109.786C712.469 109.146 713.146 108.469 713.786 107.76L707.849 102.399C707.39 102.906 706.906 103.39 706.399 103.849L711.76 109.786ZM720.964 90.4305C720.988 89.9564 721 89.4794 721 89H713C713 89.3449 712.991 89.6875 712.974 90.0275L720.964 90.4305ZM721 89V87.6141H713V89H721ZM721 69.1359V66.3641H713V69.1359H721ZM721 47.8859V45.1141H713V47.8859H721ZM721 26.6359V23.8641H713V26.6359H721ZM721 5.38588V4H713V5.38588H721Z" fill="#3C64B1"/>
</svg>
